<?xml version="1.0" encoding="UTF-8"?>
<svg xmlns="http://www.w3.org/2000/svg" xmlns:xlink="http://www.w3.org/1999/xlink" width="48pt" height="48pt" viewBox="0 0 48 48" version="1.1">
<g id="surface8331218">
<path style=" stroke:none;fill-rule:evenodd;fill:rgb(36.862745%,67.843137%,64.313725%);fill-opacity:1;" d="M 22.902344 3.285156 C 23.582031 2.90625 24.417969 2.90625 25.097656 3.285156 C 28.449219 5.167969 38.546875 10.835938 41.902344 12.71875 C 42.582031 13.101562 43 13.804688 43 14.566406 C 43 18.332031 43 29.667969 43 33.433594 C 43 34.195312 42.582031 34.898438 41.902344 35.28125 C 38.546875 37.164062 28.453125 42.832031 25.097656 44.714844 C 24.417969 45.09375 23.582031 45.09375 22.902344 44.714844 C 19.546875 42.832031 9.453125 37.164062 6.097656 35.28125 C 5.417969 34.898438 5 34.195312 5 33.433594 C 5 29.667969 5 18.332031 5 14.566406 C 5 13.804688 5.417969 13.101562 6.097656 12.71875 C 9.449219 10.835938 19.550781 5.167969 22.902344 3.285156 Z M 22.902344 3.285156 "/>
<path style=" stroke:none;fill-rule:evenodd;fill:rgb(40%,85.490196%,80%);fill-opacity:1;" d="M 5.304688 34.402344 C 5.039062 34.046875 5 33.710938 5 33.253906 C 5 29.511719 5 18.242188 5 14.496094 C 5 13.738281 5.417969 13.039062 6.09375 12.660156 C 9.4375 10.789062 19.5 5.152344 22.84375 3.28125 C 23.519531 2.902344 24.4375 2.910156 25.113281 3.289062 C 28.457031 5.160156 38.484375 10.746094 41.828125 12.617188 C 42.097656 12.769531 42.304688 12.953125 42.488281 13.195312 Z M 5.304688 34.402344 "/>
<path style=" stroke:none;fill-rule:evenodd;fill:rgb(0%,0%,0%);fill-opacity:1;" d="M 24 10 C 31.726562 10 38 16.273438 38 24 C 38 31.726562 31.726562 38 24 38 C 16.273438 38 10 31.726562 10 24 C 10 16.273438 16.273438 10 24 10 Z M 24 17 C 27.863281 17 31 20.136719 31 24 C 31 27.863281 27.863281 31 24 31 C 20.136719 31 17 27.863281 17 24 C 17 20.136719 20.136719 17 24 17 Z M 24 17 "/>
<path style=" stroke:none;fill-rule:evenodd;fill:rgb(39.607843%,72.54902%,68.627451%);fill-opacity:1;" d="M 42.484375 13.203125 C 43 13.6875 42.992188 14.414062 42.992188 14.988281 C 42.992188 18.785156 42.960938 29.578125 43 33.371094 C 43.003906 33.769531 42.871094 34.1875 42.675781 34.5 L 23.59375 24 Z M 42.484375 13.203125 "/>
<path style=" stroke:none;fill-rule:evenodd;fill:rgb(0%,0%,0%);fill-opacity:1;" d="M 31 21 L 33 21 L 33 27 L 31 27 Z M 38 21 L 40 21 L 40 27 L 38 27 Z M 38 21 "/>
<path style=" stroke:none;fill-rule:evenodd;fill:rgb(0%,0%,0%);fill-opacity:1;" d="M 29 23 L 35 23 L 35 25 L 29 25 Z M 36 23 L 42 23 L 42 25 L 36 25 Z M 36 23 "/>
</g>
</svg>
