<svg class="animated" xmlns="http://www.w3.org/2000/svg" viewBox="0 0 500 500" version="1.1" xmlns:xlink="http://www.w3.org/1999/xlink" xmlns:svgjs="http://svgjs.com/svgjs" width="640" height="289"><style>svg:not(.animated) .animable {opacity: 0;}.animated #Clouds--inject-37 {animation: 1s 1 forwards cubic-bezier(.36,-0.01,.5,1.38) fadeIn;animation-delay: 0s;}.animated #speech-bubbles--inject-37 {animation: 1.5s Infinite  linear floating;animation-delay: 0s;}            @keyframes fadeIn {                0% {                    opacity: 0;                }                100% {                    opacity: 1;                }            }                    @keyframes floating {                0% {                    opacity: 1;                    transform: translateY(0px);                }                50% {                    transform: translateY(-10px);                }                100% {                    opacity: 1;                    transform: translateY(0px);                }            }        </style><g id="Floor--inject-37" class="animable" style="transform-origin: 253.116px 394.703px;"><path d="M135.78,456c64.8,33.85,169.86,33.85,234.66,0s64.81-88.74,0-122.59-169.86-33.86-234.66,0S71,422.17,135.78,456Z" style="fill: rgb(250, 250, 250); transform-origin: 253.116px 394.703px;" id="elshf3f9nqa0l" class="animable"></path></g><g id="Shadows--inject-37" class="animable" style="transform-origin: 252.881px 380.283px;"><path d="M287.44,377.59c-18.59,8.87-48.73,8.87-67.32,0s-18.6-23.22,0-32.09,48.73-8.86,67.32,0S306,368.73,287.44,377.59Z" style="fill: rgb(240, 240, 240); transform-origin: 253.772px 361.547px;" id="elk3o0ysc6p4" class="animable"></path><path d="M337.41,415.72c13.83,6.6,36.26,6.6,50.09,0s13.83-17.28,0-23.87-36.26-6.59-50.09,0S323.58,409.13,337.41,415.72Z" style="fill: rgb(240, 240, 240); transform-origin: 362.455px 403.789px;" id="eltb5vvm142ns" class="animable"></path><path d="M118.06,416.87c13.56,6.46,35.54,6.46,49.1,0s13.56-16.94,0-23.41-35.54-6.46-49.1,0S104.5,410.41,118.06,416.87Z" style="fill: rgb(240, 240, 240); transform-origin: 142.61px 405.163px;" id="eltonczglcu4a" class="animable"></path></g><g id="Clouds--inject-37" class="animable animator-active" style="transform-origin: 250px 116.507px;"><path d="M396.75,104.75l3.83,1.48V97.78c0-6.7,5.35-8.3,11.15-5h0c5.8,3.34,10.5,11.49,10.5,18.18v1.23a5.65,5.65,0,0,1,4.87.75h0a16.72,16.72,0,0,1,7.56,13.09v.56l5.34,3.08a11,11,0,0,1,5,8.62c0,3.18-2.23,4.46-5,2.88l-43.25-25a11,11,0,0,1-5-8.61C391.77,104.45,394,103.17,396.75,104.75Z" style="fill: rgb(240, 240, 240); transform-origin: 418.375px 116.484px;" id="ellqfxlt2bwr" class="animable"></path><path d="M106.94,104.5l-8.85,5.11a9.2,9.2,0,0,0,.08-1.17v-2.56c0-4.56-3.21-6.41-7.16-4.13a13.8,13.8,0,0,0-4.26,4.1c-.65-5.74-5.15-7.88-10.61-4.72-5.92,3.41-10.71,11.71-10.71,18.54v3.83a10.12,10.12,0,0,0,.91,4.45L59,132.19a8.78,8.78,0,0,0-4,6.87c0,2.53,1.78,3.56,4,2.29l47.95-27.68a8.78,8.78,0,0,0,4-6.87C110.91,104.27,109.13,103.24,106.94,104.5Z" style="fill: rgb(240, 240, 240); transform-origin: 82.975px 120.781px;" id="elpxerwzly4t" class="animable"></path></g><g id="social-tree--inject-37" class="animable" style="transform-origin: 251.648px 197.173px;"><circle cx="310.49" cy="174.06" r="11.02" style="fill: rgb(38, 182, 166); transform-origin: 310.49px 174.06px;" id="elq5q29ibjdh" class="animable"></circle><circle cx="241.35" cy="194.06" r="16.16" style="fill: rgb(38, 182, 166); transform-origin: 241.35px 194.06px;" id="el29cw4yqoquv" class="animable"></circle><g id="eletkoak8w18e"><circle cx="197.69" cy="161.45" r="25.31" style="fill: rgb(38, 182, 166); transform-origin: 197.69px 161.45px; transform: rotate(-45deg);" class="animable"></circle></g><circle cx="225.54" cy="121.62" r="16.83" style="fill: rgb(38, 182, 166); transform-origin: 225.54px 121.62px;" id="elehr7hlqbq4q" class="animable"></circle><circle cx="276.34" cy="106.17" r="22.72" style="fill: rgb(38, 182, 166); transform-origin: 276.34px 106.17px;" id="elpr5il9x5yic" class="animable"></circle><path d="M281,220.1l-4.08,6.53a7.47,7.47,0,0,1-10.09,2.51l-4-2.32a9.57,9.57,0,0,1-4.14-7.32l-.41-15.93a2.35,2.35,0,0,0-1.36-1.9,7.29,7.29,0,0,0-6.56,0,2.31,2.31,0,0,0-1.36,1.9l-.86,33.14c-.07,2.76-1.2,4.38-2.53,3.62l-2.4-1.39a10.2,10.2,0,0,1-4.78-6.23l-2.69-10A2.5,2.5,0,0,0,230.9,224l2.69,10a15.19,15.19,0,0,0,7.11,9.26l3.58,2.07c2,1.14,3.52,4.3,3.45,7.06L245,358.07c0,1.27.84,2.55,2.52,3.52a13.49,13.49,0,0,0,12.19,0c1.68-1,2.53-2.25,2.52-3.53l-3.16-122.71c-.07-2.76,1.08-4.3,2.57-3.44l2.69,1.56a12.47,12.47,0,0,0,16.83-4.19l4.08-6.53A2.5,2.5,0,0,0,281,220.1Z" style="fill: rgb(55, 71, 79); transform-origin: 258.216px 281.968px;" id="el4n86118n9v9" class="animable"></path><g id="elrzkqv6p5vgd"><circle cx="314.04" cy="101.94" r="38.37" style="fill: rgb(38, 182, 166); transform-origin: 314.04px 101.94px; transform: rotate(-76.94deg);" class="animable"></circle></g><g id="elif0i842kks9"><path d="M352.4,101.66V102a38.37,38.37,0,1,1-71-20.14,37,37,0,0,0,71,19.85Z" style="opacity: 0.2; transform-origin: 314.03px 111.139px;" class="animable"></path></g><path d="M278.08,115.35a38.37,38.37,0,0,0,50.44,22.12,33.67,33.67,0,0,0-50.44-22.12Z" style="fill: rgb(38, 182, 166); transform-origin: 303.3px 125.396px;" id="el3xg8u4g8xtn" class="animable"></path><g id="elwz0b6a2o5l"><path d="M278.08,115.35a38.37,38.37,0,0,0,50.44,22.12,33.67,33.67,0,0,0-50.44-22.12Z" style="opacity: 0.1; transform-origin: 303.3px 125.396px;" class="animable"></path></g><path d="M315.77,86.13c3.55,0,4,0,5.37.08a7.47,7.47,0,0,1,2.47.46,4.42,4.42,0,0,1,2.52,2.52,7.47,7.47,0,0,1,.45,2.46c.07,1.4.08,1.82.08,5.37s0,4-.08,5.37a7.47,7.47,0,0,1-.45,2.46,4.42,4.42,0,0,1-2.52,2.52,7.47,7.47,0,0,1-2.47.46c-1.4.06-1.82.08-5.37.08s-4,0-5.36-.08a7.41,7.41,0,0,1-2.47-.46,4.35,4.35,0,0,1-2.52-2.52,7.4,7.4,0,0,1-.46-2.46c-.06-1.4-.07-1.82-.07-5.37s0-4,.07-5.37a7.4,7.4,0,0,1,.46-2.46,4.35,4.35,0,0,1,2.52-2.52,7.41,7.41,0,0,1,2.47-.46c1.4-.06,1.82-.08,5.36-.08m0-2.39c-3.6,0-4,0-5.47.08a9.62,9.62,0,0,0-3.23.62,6.78,6.78,0,0,0-3.88,3.88,9.86,9.86,0,0,0-.62,3.22c-.06,1.42-.08,1.87-.08,5.48s0,4.06.08,5.48a9.86,9.86,0,0,0,.62,3.22,6.78,6.78,0,0,0,3.88,3.88,9.62,9.62,0,0,0,3.23.62c1.42.06,1.87.08,5.47.08s4.06,0,5.48-.08a9.55,9.55,0,0,0,3.22-.62,6.48,6.48,0,0,0,2.36-1.53,6.66,6.66,0,0,0,1.53-2.35,9.63,9.63,0,0,0,.61-3.22c.07-1.42.08-1.87.08-5.48s0-4.06-.08-5.48a9.63,9.63,0,0,0-.61-3.22A6.66,6.66,0,0,0,326.83,86a6.48,6.48,0,0,0-2.36-1.53,9.55,9.55,0,0,0-3.22-.62c-1.42-.06-1.87-.08-5.48-.08" style="fill: rgb(255, 255, 255); transform-origin: 315.77px 97.02px;" id="elo7rvrqy1ob7" class="animable"></path><path d="M315.77,90.2A6.82,6.82,0,1,0,322.59,97a6.82,6.82,0,0,0-6.82-6.82m0,11.25A4.43,4.43,0,1,1,320.2,97a4.43,4.43,0,0,1-4.43,4.43" style="fill: rgb(255, 255, 255); transform-origin: 315.77px 97.01px;" id="elecoqhbww0dl" class="animable"></path><path d="M324.46,89.93a1.6,1.6,0,1,1-1.6-1.59,1.6,1.6,0,0,1,1.6,1.59" style="fill: rgb(255, 255, 255); transform-origin: 322.86px 89.94px;" id="elqzcwydegiv" class="animable"></path><g id="elcajr743bg3"><circle cx="338.93" cy="160.95" r="29.02" style="fill: rgb(38, 182, 166); transform-origin: 338.93px 160.95px; transform: rotate(-78.6deg);" class="animable"></circle></g><path d="M367.94,160.74V161a29,29,0,1,1-53.73-15.23,28.92,28.92,0,0,0-.61,5.87,27.94,27.94,0,0,0,54.34,9.14Z" style="fill: rgb(38, 182, 166); transform-origin: 338.94px 167.843px;" id="el1eksb14cig" class="animable"></path><g id="elnnl9zjrw0p"><path d="M367.94,160.74V161a29,29,0,1,1-53.73-15.23,28.92,28.92,0,0,0-.61,5.87,27.94,27.94,0,0,0,54.34,9.14Z" style="opacity: 0.1; transform-origin: 338.94px 167.843px;" class="animable"></path></g><path d="M309.91,161A28.9,28.9,0,0,0,318,181,33.64,33.64,0,0,0,324.21,136,29,29,0,0,0,309.91,161Z" style="fill: rgb(38, 182, 166); transform-origin: 320.037px 158.5px;" id="elh5oigbmx6t" class="animable"></path><g id="el0g9c4ok2tqj6"><path d="M309.91,161A28.9,28.9,0,0,0,318,181,33.64,33.64,0,0,0,324.21,136,29,29,0,0,0,309.91,161Z" style="opacity: 0.1; transform-origin: 320.037px 158.5px;" class="animable"></path></g><path d="M350.11,151.37c-2.79-.09-4.67,1.49-5.66,4.72a3.72,3.72,0,0,1,1.48-.33c1,0,1.48.58,1.36,1.73a7.77,7.77,0,0,1-1.36,3c-.84,1.33-1.47,2-1.89,2s-1-1-1.49-3.07c-.15-.6-.42-2.14-.81-4.6q-.54-3.43-2.89-3.21a6.7,6.7,0,0,0-3,1.8c-1,.87-1.94,1.75-2.93,2.62l.95,1.22a6.32,6.32,0,0,1,1.57-1c.69,0,1.34,1.08,1.94,3.25l1.62,5.94q1.22,3.26,3,3.25,2.85,0,6.94-5.33,4-5.1,4.1-8Q353.2,151.48,350.11,151.37Z" style="fill: rgb(255, 255, 255); transform-origin: 342.984px 160.028px;" id="el7u9yo919ndn" class="animable"></path><circle cx="241.44" cy="71.98" r="40.68" style="fill: rgb(38, 182, 166); transform-origin: 241.44px 71.98px;" id="eloer5f40mrwe" class="animable"></circle><g id="el1baunn2r787"><path d="M282.11,71.68V72a40.68,40.68,0,1,1-75.32-21.35,39.61,39.61,0,0,0-.87,8.23,39.17,39.17,0,0,0,76.19,12.81Z" style="fill: rgb(38, 182, 166); opacity: 0.5; transform-origin: 241.43px 81.6546px;" class="animable"></path></g><g id="elg03whao3ze"><path d="M282.11,71.68V72a40.68,40.68,0,1,1-75.32-21.35,39.61,39.61,0,0,0-.87,8.23,39.17,39.17,0,0,0,76.19,12.81Z" style="opacity: 0.1; transform-origin: 241.43px 81.6546px;" class="animable"></path></g><path d="M275.67,94a26.07,26.07,0,0,0-49.43,11.6,25.49,25.49,0,0,0,.37,4.31A40.63,40.63,0,0,0,275.67,94Z" style="fill: rgb(38, 182, 166); transform-origin: 250.955px 96.1114px;" id="elzwetnss946" class="animable"></path><g id="elm51xw3z6wv"><path d="M275.67,94a26.07,26.07,0,0,0-49.43,11.6,25.49,25.49,0,0,0,.37,4.31A40.63,40.63,0,0,0,275.67,94Z" style="opacity: 0.1; transform-origin: 250.955px 96.1114px;" class="animable"></path></g><path d="M238.25,76.93h5.9V62.16h4.11l.44-4.94h-4.55V54.41c0-1.17.23-1.63,1.36-1.63h3.19V47.65h-4.08c-4.39,0-6.37,1.93-6.37,5.63v3.94h-3.06v5h3.06Z" style="fill: rgb(255, 255, 255); transform-origin: 241.945px 62.29px;" id="elmy2mn88zkp" class="animable"></path><g id="elcmnbnhta35r"><circle cx="183.59" cy="121.93" r="41.96" style="fill: rgb(38, 182, 166); transform-origin: 183.59px 121.93px; transform: rotate(-80.9deg);" class="animable"></circle></g><g id="el6tsqncjia8"><path d="M225.54,121.62v.32a42,42,0,1,1-77.68-22,40.82,40.82,0,0,0-.9,8.49,40.4,40.4,0,0,0,78.58,13.22Z" style="fill: rgb(38, 182, 166); opacity: 0.7; transform-origin: 183.54px 132.018px;" class="animable"></path></g><g id="elo434nq4sksj"><path d="M225.54,121.62v.32a42,42,0,1,1-77.68-22,40.82,40.82,0,0,0-.9,8.49,40.4,40.4,0,0,0,78.58,13.22Z" style="opacity: 0.1; transform-origin: 183.54px 132.018px;" class="animable"></path></g><path d="M164.26,136.08a24.9,24.9,0,0,0-17,6.73,41.79,41.79,0,0,0,41.92,20.7c.08-.8.12-1.62.12-2.44A25,25,0,0,0,164.26,136.08Z" style="fill: rgb(38, 182, 166); transform-origin: 168.28px 149.985px;" id="elre473r87uln" class="animable"></path><g id="elbi0gm9gpkei"><path d="M164.26,136.08a24.9,24.9,0,0,0-17,6.73,41.79,41.79,0,0,0,41.92,20.7c.08-.8.12-1.62.12-2.44A25,25,0,0,0,164.26,136.08Z" style="opacity: 0.1; transform-origin: 168.28px 149.985px;" class="animable"></path></g><path d="M225.54,122.42a31,31,0,0,0-27.85,39A42,42,0,0,0,225.54,122.42Z" style="fill: rgb(38, 182, 166); transform-origin: 211.081px 141.92px;" id="elal2f6ou9wck" class="animable"></path><g id="elup48j65okhg"><path d="M225.54,122.42a31,31,0,0,0-27.85,39A42,42,0,0,0,225.54,122.42Z" style="opacity: 0.1; transform-origin: 211.081px 141.92px;" class="animable"></path></g><path d="M170.69,126.7a15.06,15.06,0,0,0,23.17-13.37,10.91,10.91,0,0,0,2.64-2.74,10.37,10.37,0,0,1-3,.83,5.26,5.26,0,0,0,2.32-2.93,10.52,10.52,0,0,1-3.36,1.29,5.3,5.3,0,0,0-9,4.83,15,15,0,0,1-10.91-5.53,5.31,5.31,0,0,0,1.63,7.07,5.33,5.33,0,0,1-2.4-.67,5.31,5.31,0,0,0,4.25,5.26,5.18,5.18,0,0,1-2.39.09,5.29,5.29,0,0,0,4.95,3.68A10.63,10.63,0,0,1,170.69,126.7Z" style="fill: rgb(255, 255, 255); transform-origin: 183.595px 118.612px;" id="eljvl87wz5pt" class="animable"></path><g id="el1wj91ssf69n"><circle cx="196.39" cy="197.17" r="32.93" style="fill: rgb(38, 182, 166); transform-origin: 196.39px 197.17px; transform: rotate(-45deg);" class="animable"></circle></g><g id="elo6qsfb1wth"><path d="M201,164.57a32,32,0,0,0-.28,4.18,31.62,31.62,0,0,0,11.88,24.73,21.6,21.6,0,0,0,3,30.4A32.92,32.92,0,0,0,201,164.57Z" style="fill: rgb(38, 182, 166); opacity: 0.3; transform-origin: 215.004px 194.225px;" class="animable"></path></g><g id="ela0fm8d42mg4"><path d="M201,164.57a32,32,0,0,0-.28,4.18,31.62,31.62,0,0,0,11.88,24.73,21.6,21.6,0,0,0,3,30.4A32.92,32.92,0,0,0,201,164.57Z" style="opacity: 0.1; transform-origin: 215.004px 194.225px;" class="animable"></path></g><path d="M229.31,196.92v.25a32.93,32.93,0,1,1-61-17.28,31.71,31.71,0,0,0,61,17Z" style="fill: rgb(38, 182, 166); transform-origin: 196.38px 204.964px;" id="el7vm2xjtdjhm" class="animable"></path><path d="M229.31,196.92v.25a32.93,32.93,0,1,1-61-17.28,31.71,31.71,0,0,0,61,17Z" style="fill: rgb(38, 182, 166); transform-origin: 196.38px 204.964px;" id="eluqknftm3hw" class="animable"></path><g id="ele6kc7n2eben"><g style="opacity: 0.1; transform-origin: 196.38px 204.964px;" class="animable"><path d="M229.31,196.92v.25a32.93,32.93,0,1,1-61-17.28,31.71,31.71,0,0,0,61,17Z" id="el1k65nce9ut1" class="animable" style="transform-origin: 196.38px 204.964px;"></path><path d="M229.31,196.92v.25a32.93,32.93,0,1,1-61-17.28,31.71,31.71,0,0,0,61,17Z" id="eldx05qqkczil" class="animable" style="transform-origin: 196.38px 204.964px;"></path></g></g><path d="M190.33,202.79a4.27,4.27,0,0,0,1.72-.76,4.58,4.58,0,0,0,1.75-3.62,4.07,4.07,0,0,0-.59-2.23,3.4,3.4,0,0,0-1.76-1.34,3.68,3.68,0,0,0,1.16-.86,3.39,3.39,0,0,0,.7-2.24,3.9,3.9,0,0,0-.69-2.32,4.69,4.69,0,0,0-3.94-1.62h-7.34V203h6.84A10.38,10.38,0,0,0,190.33,202.79Zm-6-12.35h3.3a5.68,5.68,0,0,1,1.8.24,1.36,1.36,0,0,1,.81,1.4,1.44,1.44,0,0,1-.61,1.34,3.1,3.1,0,0,1-1.61.37h-3.69Zm0,9.92v-4.05h3.74a3.78,3.78,0,0,1,1.51.25,1.63,1.63,0,0,1,1,1.63,1.91,1.91,0,0,1-1,1.9,3.52,3.52,0,0,1-1.53.27Z" style="fill: rgb(255, 255, 255); transform-origin: 187.571px 195.392px;" id="eldo7jvtk9fz" class="animable"></path><path d="M196.37,202a6.12,6.12,0,0,0,4,1.38,5.45,5.45,0,0,0,4.22-1.64,3.62,3.62,0,0,0,1.09-2h-3a2.32,2.32,0,0,1-2.24,1.29,2.92,2.92,0,0,1-1.62-.43,2.69,2.69,0,0,1-1.18-2.37h8.19a14.77,14.77,0,0,0-.1-2.23,5.57,5.57,0,0,0-.89-2.32,4.52,4.52,0,0,0-1.95-1.66,6.38,6.38,0,0,0-2.64-.53,5.44,5.44,0,0,0-4,1.56,6.09,6.09,0,0,0-1.54,4.48A5.48,5.48,0,0,0,196.37,202Zm2.1-7.47a2.33,2.33,0,0,1,1.75-.64,2.6,2.6,0,0,1,1.75.6,2.47,2.47,0,0,1,.78,1.78h-5.06A2.93,2.93,0,0,1,198.47,194.53Z" style="fill: rgb(255, 255, 255); transform-origin: 200.261px 197.438px;" id="el1j0btcumrjf" class="animable"></path><rect x="196.73" y="188.68" width="6.6" height="1.53" style="fill: rgb(255, 255, 255); transform-origin: 200.03px 189.445px;" id="eluh7nket141" class="animable"></rect><circle cx="287.42" cy="147.81" r="33.64" style="fill: rgb(38, 182, 166); transform-origin: 287.42px 147.81px;" id="elpkt0ndepanm" class="animable"></circle><g id="elbnddnnln6do"><path d="M321.05,147.56v.25a33.64,33.64,0,1,1-62.28-17.66,33.12,33.12,0,0,0-.72,6.81,32.39,32.39,0,0,0,63,10.6Z" style="opacity: 0.2; transform-origin: 287.41px 155.793px;" class="animable"></path></g><path d="M258.51,130.61a33.63,33.63,0,0,0,8.12,43.64,30.93,30.93,0,0,0-8.12-43.64Z" style="fill: rgb(38, 182, 166); transform-origin: 263.051px 152.43px;" id="elmkfwtpigy1i" class="animable"></path><g id="elecfllng9t9n"><path d="M258.51,130.61a33.63,33.63,0,0,0,8.12,43.64,30.93,30.93,0,0,0-8.12-43.64Z" style="fill: rgb(38, 182, 166); opacity: 0.1; transform-origin: 263.051px 152.43px;" class="animable"></path></g><g id="eleotiq6fzb2p"><g style="opacity: 0.1; transform-origin: 263.051px 152.43px;" class="animable"><path d="M258.51,130.61a33.63,33.63,0,0,0,8.12,43.64,30.93,30.93,0,0,0-8.12-43.64Z" id="elm139lj05saf" class="animable" style="transform-origin: 263.051px 152.43px;"></path><g id="elrmvs33p0jpq"><path d="M258.51,130.61a33.63,33.63,0,0,0,8.12,43.64,30.93,30.93,0,0,0-8.12-43.64Z" style="opacity: 0.1; transform-origin: 263.051px 152.43px;" class="animable"></path></g></g></g><path d="M283.55,146.9a.57.57,0,0,0,.83-.41c.08-.29.26-1,.34-1.33a.8.8,0,0,0-.24-.92,4.78,4.78,0,0,1-1.09-3.24,7.82,7.82,0,0,1,8.14-7.91c4.43,0,6.87,2.71,6.87,6.33,0,4.77-2.11,8.79-5.24,8.79a2.56,2.56,0,0,1-2.61-3.19c.5-2.09,1.46-4.35,1.46-5.86a2.21,2.21,0,0,0-2.23-2.48c-1.76,0-3.18,1.83-3.18,4.28a6.29,6.29,0,0,0,.53,2.61l-2.13,9a18.4,18.4,0,0,0-.05,6.27.22.22,0,0,0,.39.1,17.48,17.48,0,0,0,3-5.41c.2-.73,1.16-4.54,1.16-4.54a4.71,4.71,0,0,0,4,2.06c5.32,0,8.92-4.84,8.92-11.32,0-4.91-4.15-9.47-10.46-9.47-7.85,0-11.81,5.63-11.81,10.32C280.17,143.43,281.25,146,283.55,146.9Z" style="fill: rgb(255, 255, 255); transform-origin: 291.285px 144.642px;" id="elimcf8fyd6to" class="animable"></path><g id="el752rv6df2y"><circle cx="301.87" cy="201.78" r="29.02" style="fill: rgb(38, 182, 166); transform-origin: 301.87px 201.78px; transform: rotate(-45deg);" class="animable"></circle></g><path d="M330.88,201.56v.22a29,29,0,1,1-53.73-15.23,28.23,28.23,0,0,0-.62,5.87,27.94,27.94,0,0,0,54.35,9.14Z" style="fill: rgb(38, 182, 166); transform-origin: 301.88px 208.623px;" id="el1arzxc2ziix" class="animable"></path><g id="elqarjewkbata"><path d="M330.88,201.56v.22a29,29,0,1,1-53.73-15.23,28.23,28.23,0,0,0-.62,5.87,27.94,27.94,0,0,0,54.35,9.14Z" style="opacity: 0.2; transform-origin: 301.88px 208.623px;" class="animable"></path></g><path d="M272.84,201.78a28.85,28.85,0,0,0,5,16.34,24.08,24.08,0,0,0,9.1-41.26A29,29,0,0,0,272.84,201.78Z" style="fill: rgb(38, 182, 166); transform-origin: 284.012px 197.49px;" id="el9u53nhqnib" class="animable"></path><g id="elh52iozqkjgi"><path d="M272.84,201.78a28.85,28.85,0,0,0,5,16.34,24.08,24.08,0,0,0,9.1-41.26A29,29,0,0,0,272.84,201.78Z" style="opacity: 0.1; transform-origin: 284.012px 197.49px;" class="animable"></path></g><rect x="299.86" y="195.43" width="3.91" height="12.64" style="fill: rgb(255, 255, 255); transform-origin: 301.815px 201.75px;" id="el5juejfp021w" class="animable"></rect><path d="M301.79,193.78a2.33,2.33,0,1,0-2.31-2.33A2.33,2.33,0,0,0,301.79,193.78Z" style="fill: rgb(255, 255, 255); transform-origin: 301.81px 191.45px;" id="el9qe578c1jk" class="animable"></path><path d="M310,201.44c0-1.78.82-2.84,2.39-2.84s2.12,1,2.12,2.84v6.63h3.9v-8c0-3.38-1.92-5-4.6-5a4.41,4.41,0,0,0-3.81,2.09v-1.71h-3.75v12.64H310Z" style="fill: rgb(255, 255, 255); transform-origin: 312.33px 201.58px;" id="elgkru5017coa" class="animable"></path><circle cx="268.72" cy="191.85" r="22.58" style="fill: rgb(38, 182, 166); transform-origin: 268.72px 191.85px;" id="elbikhgoe4epp" class="animable"></circle><path d="M291.3,191.68v.17A22.58,22.58,0,1,1,249.49,180a22,22,0,0,0-.48,4.57,21.75,21.75,0,0,0,42.29,7.11Z" style="fill: rgb(38, 182, 166); transform-origin: 268.72px 197.207px;" id="elmrxsfk4hoo" class="animable"></path><g id="elny5pnxgv6j"><path d="M291.3,191.68v.17A22.58,22.58,0,1,1,249.49,180a22,22,0,0,0-.48,4.57,21.75,21.75,0,0,0,42.29,7.11Z" style="opacity: 0.2; transform-origin: 268.72px 197.207px;" class="animable"></path></g><path d="M257.87,184.24l5.43,3.45,5.42-3.45-5.42-3.46Z" style="fill: rgb(255, 255, 255); transform-origin: 263.295px 184.235px;" id="elih04uw4n3v" class="animable"></path><path d="M268.71,184.24l5.43,3.45,5.43-3.45-5.43-3.46Z" style="fill: rgb(255, 255, 255); transform-origin: 274.14px 184.235px;" id="elu9sidml4orh" class="animable"></path><path d="M257.87,191.1l5.43,3.46,5.42-3.46-5.42-3.46Z" style="fill: rgb(255, 255, 255); transform-origin: 263.295px 191.1px;" id="elf7doyqvsadd" class="animable"></path><path d="M274.14,187.64l-5.43,3.46,5.43,3.46,5.43-3.46Z" style="fill: rgb(255, 255, 255); transform-origin: 274.14px 191.1px;" id="elinidtdsikc" class="animable"></path><path d="M263.33,195.7l5.43,3.46,5.42-3.46-5.42-3.45Z" style="fill: rgb(255, 255, 255); transform-origin: 268.755px 195.705px;" id="elege06flgz4e" class="animable"></path><g id="elbofboq0n2qp"><circle cx="234.18" cy="158.31" r="30.96" style="fill: rgb(38, 182, 166); transform-origin: 234.18px 158.31px; transform: rotate(-45deg);" class="animable"></circle></g><g id="elu0pohgi4jyi"><path d="M265.14,158.08v.23a31,31,0,1,1-57.32-16.25,29.81,29.81,0,0,0,57.32,16Z" style="fill: rgb(38, 182, 166); opacity: 0.7; transform-origin: 234.14px 165.749px;" class="animable"></path></g><g id="elki1jfpv6av"><g style="opacity: 0.1; transform-origin: 234.14px 165.749px;" class="animable"><g id="elrkd19inllzg"><path d="M265.14,158.08v.23a31,31,0,1,1-57.32-16.25,29.81,29.81,0,0,0,57.32,16Z" style="opacity: 0.7; transform-origin: 234.14px 165.749px;" class="animable"></path></g></g></g><path d="M234.88,142.5A14.16,14.16,0,1,0,249,156.66,14.16,14.16,0,0,0,234.88,142.5ZM241.39,163a.84.84,0,0,1-1.2.29c-3.33-2.06-7.5-2.48-12.46-1.35a.89.89,0,0,1-1.06-.63.9.9,0,0,1,.63-1.07c5.39-1.2,10.06-.7,13.74,1.56A.84.84,0,0,1,241.39,163Zm1.7-3.89a1,1,0,0,1-1.48.35,18.37,18.37,0,0,0-14.09-1.62,1.08,1.08,0,1,1-.64-2.06,20.75,20.75,0,0,1,15.93,1.91A1,1,0,0,1,243.09,159.07Zm.14-4c-4.53-2.69-12.1-3-16.42-1.63A1.3,1.3,0,0,1,226,151c5-1.49,13.31-1.2,18.55,1.91a1.37,1.37,0,0,1,.5,1.84A1.5,1.5,0,0,1,243.23,155.11Z" style="fill: rgb(255, 255, 255); transform-origin: 234.84px 156.66px;" id="elqwetqku46a9" class="animable"></path><circle cx="233.31" cy="209.59" r="21.11" style="fill: rgb(38, 182, 166); transform-origin: 233.31px 209.59px;" id="eltceg3thvmk" class="animable"></circle><path d="M254.42,209.43v.16a21.11,21.11,0,1,1-39.08-11.08,20.61,20.61,0,0,0-.45,4.27,20.33,20.33,0,0,0,39.53,6.65Z" style="fill: rgb(38, 182, 166); transform-origin: 233.31px 214.604px;" id="elw1k3hxy2msr" class="animable"></path><g id="el5rch3t4ootf"><path d="M254.42,209.43v.16a21.11,21.11,0,1,1-39.08-11.08,20.61,20.61,0,0,0-.45,4.27,20.33,20.33,0,0,0,39.53,6.65Z" style="fill: rgb(38, 182, 166); opacity: 0.2; transform-origin: 233.31px 214.604px;" class="animable"></path></g><g id="el6dvolodrr3"><g style="opacity: 0.1; transform-origin: 233.31px 214.604px;" class="animable"><path d="M254.42,209.43v.16a21.11,21.11,0,1,1-39.08-11.08,20.61,20.61,0,0,0-.45,4.27,20.33,20.33,0,0,0,39.53,6.65Z" id="elrzpe560vkbh" class="animable" style="transform-origin: 233.31px 214.604px;"></path><g id="elb5rl02scn74"><path d="M254.42,209.43v.16a21.11,21.11,0,1,1-39.08-11.08,20.61,20.61,0,0,0-.45,4.27,20.33,20.33,0,0,0,39.53,6.65Z" style="opacity: 0.2; transform-origin: 233.31px 214.604px;" class="animable"></path></g></g></g><path d="M224.81,208a9.47,9.47,0,0,0,9.48,9.48,9.32,9.32,0,0,0,1.77-.17,5.53,5.53,0,0,0,8.39-4.74,5.43,5.43,0,0,0-.83-2.91,10,10,0,0,0,.15-1.66,9.49,9.49,0,0,0-9.48-9.48,9.19,9.19,0,0,0-1.75.17A5.53,5.53,0,0,0,225,206.3,9.37,9.37,0,0,0,224.81,208Zm9.58-6.73c3.06.18,4.85,1.52,5,2.78a1.29,1.29,0,0,1-1.41,1.46c-1.38,0-1.52-1.85-3.9-1.85-1.07,0-2,.45-2,1.42,0,2,7.63.85,7.63,5.3,0,2.57-2.06,4.25-5.13,4.25-2.7,0-5.41-1.22-5.4-3.33a1.19,1.19,0,0,1,1.11-1.22c1.59,0,1.58,2.37,4.11,2.37,1.78,0,2.38-1,2.38-1.65,0-2.44-7.67-.94-7.67-5.53C229.15,202.77,231.19,201.06,234.39,201.25Z" style="fill: rgb(255, 255, 255); transform-origin: 234.333px 208.02px;" id="elovfdijyabgi" class="animable"></path><g id="elwkeuyud31i"><circle cx="160.2" cy="164.14" r="24.99" style="fill: rgb(38, 182, 166); transform-origin: 160.2px 164.14px; transform: rotate(-76.86deg);" class="animable"></circle></g><g id="elaedl9fvshu"><path d="M185.18,164v.19A25,25,0,1,1,138.91,151a24.67,24.67,0,0,0-.53,5.06,24.06,24.06,0,0,0,46.8,7.87Z" style="fill: rgb(38, 182, 166); opacity: 0.5; transform-origin: 160.18px 170.069px;" class="animable"></path></g><g id="elsam3m8drrj"><path d="M185.18,164v.19A25,25,0,1,1,138.91,151a24.67,24.67,0,0,0-.53,5.06,24.06,24.06,0,0,0,46.8,7.87Z" style="opacity: 0.1; transform-origin: 160.18px 170.069px;" class="animable"></path></g><path d="M169.76,165.85h0a2.55,2.55,0,0,0-.62-.23h0a5.35,5.35,0,0,1-2.55-1.85,5.88,5.88,0,0,1-.86-1.52h0a.7.7,0,0,1,0-.65h0a1.79,1.79,0,0,1,.87-.55h0a3.41,3.41,0,0,0,1.18-.61h0a.54.54,0,0,0,.17-.21.94.94,0,0,0,0-.09.39.39,0,0,0,0-.3h0a.91.91,0,0,0-.42-.39h0a.89.89,0,0,0-.71-.07h0a5.18,5.18,0,0,1-.63.19h0a1.33,1.33,0,0,1-.72,0,1.06,1.06,0,0,0,0-.15h0c0-.43,0-.88,0-1.34h0a13,13,0,0,0,0-2.15h0a4.82,4.82,0,0,0-2-3A5,5,0,0,0,161,152h0a8.77,8.77,0,0,0-.88,0,5.51,5.51,0,0,0-3.36,1.07,5.41,5.41,0,0,0-1.63,2.13h0a6.17,6.17,0,0,0-.27,2.61h0a11,11,0,0,1,0,1.71v0a2.23,2.23,0,0,1-.85,0h0a5.43,5.43,0,0,1-.65-.18h0a.77.77,0,0,0-.63.14h0a.64.64,0,0,0-.34.51v0h0a.66.66,0,0,0,.22.35l.22.16h0a6.2,6.2,0,0,0,1.32.57h0a1,1,0,0,1,.6.57,1.62,1.62,0,0,1-.24,1h0a6.13,6.13,0,0,1-2,2.29,4.85,4.85,0,0,1-1.48.68h0a.86.86,0,0,0-.53.3.14.14,0,0,1,0,.06.44.44,0,0,0,.08.41.63.63,0,0,0,.23.18h0a5.27,5.27,0,0,0,1.36.48h0a5.56,5.56,0,0,1,.85.21s0,.1.09.23.11.53.2.83a.24.24,0,0,0,.19.16.47.47,0,0,0,.32,0h0a5.42,5.42,0,0,1,2.15-.08h0a8.68,8.68,0,0,1,2,1.09h0a3.3,3.3,0,0,0,1.62.59h0a10.37,10.37,0,0,0,1.37,0h0a2.53,2.53,0,0,0,1.07-.37h0a24,24,0,0,1,2.09-1.22h0a3,3,0,0,1,.84-.1h0a10.33,10.33,0,0,1,1.76.09h.06a.34.34,0,0,0,.2-.12.17.17,0,0,0,.06-.12c0-.06,0-.09,0,0a.08.08,0,0,0,0-.05,2.63,2.63,0,0,1,.34-.87.56.56,0,0,1,.37-.11h0a6.69,6.69,0,0,0,1.4-.39h0a1.24,1.24,0,0,0,.57-.38h0a.41.41,0,0,0-.12-.58Z" style="fill: rgb(255, 255, 255); fill-rule: evenodd; transform-origin: 160.136px 161.041px;" id="el6hjkwx32ai9" class="animable"></path><g id="eli9j5m3h7rx"><circle cx="250.21" cy="114.44" r="26.07" style="fill: rgb(38, 182, 166); transform-origin: 250.21px 114.44px; transform: rotate(-74.69deg);" class="animable"></circle></g><g id="elepmqxm488ql"><path d="M276.28,114.25v.2A26.07,26.07,0,1,1,228,100.76a25.11,25.11,0,0,0,48.27,13.49Z" style="fill: rgb(38, 182, 166); opacity: 0.5; transform-origin: 250.21px 120.621px;" class="animable"></path></g><g id="elk2w8cvjgknh"><path d="M276.28,114.25v.2A26.07,26.07,0,1,1,228,100.76a25.11,25.11,0,0,0,48.27,13.49Z" style="fill: rgb(38, 182, 166); opacity: 0.1; transform-origin: 250.21px 120.621px;" class="animable"></path></g><g id="elfpd74bsg2ao"><g style="opacity: 0.1; transform-origin: 250.21px 120.621px;" class="animable"><g id="elli30zuchr8"><path d="M276.28,114.25v.2A26.07,26.07,0,1,1,228,100.76a25.11,25.11,0,0,0,48.27,13.49Z" style="opacity: 0.5; transform-origin: 250.21px 120.621px;" class="animable"></path></g><g id="el7at2pgaq025"><path d="M276.28,114.25v.2A26.07,26.07,0,1,1,228,100.76a25.11,25.11,0,0,0,48.27,13.49Z" style="opacity: 0.1; transform-origin: 250.21px 120.621px;" class="animable"></path></g></g></g><path d="M259.58,111.36a8.95,8.95,0,0,0-17.88-.16c0,.13,0,.26,0,.39a8.81,8.81,0,0,0,1.28,4.58l-1.61,4.77,4.95-1.58a9,9,0,0,0,4.33,1.11,8.91,8.91,0,0,0,8.94-8.88Zm-8.94,7.69a7.45,7.45,0,0,1-4.14-1.24l-2.89.93.94-2.78a7.38,7.38,0,0,1-1.44-4.37c0-.25,0-.49,0-.73a7.53,7.53,0,0,1,15,.14c0,.2,0,.39,0,.59A7.51,7.51,0,0,1,250.64,119.05Z" style="fill: rgb(255, 255, 255); fill-rule: evenodd; transform-origin: 250.48px 111.843px;" id="elsdo12shz9ld" class="animable"></path><path d="M254.74,113.38c-.22-.11-1.3-.64-1.5-.71s-.35-.11-.5.11-.57.71-.69.85-.26.16-.48.05a5.62,5.62,0,0,1-1.76-1.08,6.23,6.23,0,0,1-1.22-1.5.31.31,0,0,1,.09-.44c.11-.1.22-.26.34-.39l.08-.1c.05-.08.08-.16.13-.26a.39.39,0,0,0,0-.38c-.06-.11-.5-1.18-.68-1.62s-.37-.36-.5-.36l-.41,0a.84.84,0,0,0-.59.27,2.46,2.46,0,0,0-.77,1.82,2.66,2.66,0,0,0,.12.74,4.76,4.76,0,0,0,.78,1.51,9,9,0,0,0,3.74,3.29c2.24.87,2.24.58,2.64.54a2.16,2.16,0,0,0,1.48-1,1.87,1.87,0,0,0,.13-1C255.1,113.54,255,113.49,254.74,113.38Z" style="fill: rgb(255, 255, 255); fill-rule: evenodd; transform-origin: 250.735px 111.671px;" id="elv5tmmqke58g" class="animable"></path></g><g id="speech-bubbles--inject-37" class="animable" style="transform-origin: 249.523px 218.009px;"><g id="elcnkslah12vr"><ellipse cx="395.39" cy="215.99" rx="14.07" ry="7.96" style="fill: rgb(38, 182, 166); transform-origin: 395.39px 215.99px; transform: rotate(-66.95deg);" class="animable"></ellipse></g><g id="elc7ehg94uji"><ellipse cx="395.39" cy="215.99" rx="14.07" ry="7.96" style="opacity: 0.2; transform-origin: 395.39px 215.99px; transform: rotate(-66.95deg);" class="animable"></ellipse></g><polygon points="394.25 231.49 389.44 228.72 401.46 203.3 406.3 206.13 394.25 231.49" style="fill: rgb(38, 182, 166); transform-origin: 397.87px 217.395px;" id="ell1oiuf0tu9" class="animable"></polygon><g id="el0e5cfkkm2zjv"><polygon points="394.25 231.49 389.44 228.72 401.46 203.3 406.3 206.13 394.25 231.49" style="opacity: 0.2; transform-origin: 397.87px 217.395px;" class="animable"></polygon></g><polygon points="400.01 236 395.19 233.22 395.14 230.63 400.01 230.63 400.01 236" style="fill: rgb(38, 182, 166); transform-origin: 397.575px 233.315px;" id="el026bapzuybw3" class="animable"></polygon><polygon points="400.01 236 395.19 233.22 395.14 230.63 400.01 230.63 400.01 236" style="fill: rgb(38, 182, 166); transform-origin: 397.575px 233.315px;" id="el9s4jd99auze" class="animable"></polygon><polygon points="400.01 236 395.19 233.22 395.14 230.63 400.01 230.63 400.01 236" style="fill: rgb(38, 182, 166); transform-origin: 397.575px 233.315px;" id="el0bzcrqok0hh" class="animable"></polygon><g id="elf3t8xvlfnrv"><polygon points="400.01 236 395.19 233.22 395.14 230.63 400.01 230.63 400.01 236" style="opacity: 0.2; transform-origin: 397.575px 233.315px;" class="animable"></polygon></g><path d="M398.13,231.89l1.79,4a.31.31,0,0,0,.58,0l1.9-6.43V227l-4.27,2.46Z" style="fill: rgb(38, 182, 166); transform-origin: 400.265px 231.545px;" id="els68egjwrym" class="animable"></path><path d="M393.26,229.07l1.79,4a.31.31,0,0,0,.58,0l1.89-6.42v-2.46l-4.26,2.46Z" style="fill: rgb(38, 182, 166); transform-origin: 395.39px 228.73px;" id="el4t0u7p8xecq" class="animable"></path><g id="elgm5knu18oj"><path d="M393.26,229.07l1.79,4a.31.31,0,0,0,.58,0l1.89-6.42v-2.46l-4.26,2.46Z" style="opacity: 0.2; transform-origin: 395.39px 228.73px;" class="animable"></path></g><path d="M409.43,213.51c0,6.75-4.1,14.59-9.17,17.51s-9.16-.18-9.16-6.93,4.1-14.58,9.16-17.51S409.43,206.76,409.43,213.51Z" style="fill: rgb(38, 182, 166); transform-origin: 400.265px 218.798px;" id="el1eykd303bp5" class="animable"></path><path d="M404.48,215.87a2.13,2.13,0,0,0,.71-1.52c0-.63-.39-.92-.86-.65l-2.56,1.48a1.77,1.77,0,0,0,.21-.49l.15-.59a11,11,0,0,0,.34-2.95c0-.47-.31-.68-.67-.47a1.55,1.55,0,0,0-.65,1l-.27,1.4a2.29,2.29,0,0,1-.12.37l-1.7,3.9a6.46,6.46,0,0,0-1.12,2.3v4.59c0,.32.49.47.73.33l3.17-1.74h0l2.13-1.19a1.76,1.76,0,0,0,.76-1.38c0-.42-.19-.65-.48-.62a1.87,1.87,0,0,0,.63-1.33.68.68,0,0,0-.25-.6,2.06,2.06,0,0,0,.46-1.21C405.09,216,404.83,215.78,404.48,215.87Z" style="fill: rgb(255, 255, 255); transform-origin: 401.565px 217.611px;" id="elandkfpenna6" class="animable"></path><path d="M394.79,227.47l2-1.22a.74.74,0,0,0,.25-.62v-5.72c0-.24-.18-.35-.36-.25l-1.92,1.23c-.18.1-.12.38-.12.62v5.71C394.68,227.46,394.61,227.57,394.79,227.47Z" style="fill: rgb(255, 255, 255); transform-origin: 395.837px 223.565px;" id="elej9rplk33ol" class="animable"></path><g id="el4a4sqnpkexb"><ellipse cx="107.35" cy="215.99" rx="7.96" ry="14.07" style="fill: rgb(38, 182, 166); transform-origin: 107.35px 215.99px; transform: rotate(-23.05deg);" class="animable"></ellipse></g><g id="el82xg3y17m44"><g style="opacity: 0.2; transform-origin: 107.35px 215.99px;" class="animable"><g id="elfycmeu640cg"><ellipse cx="107.35" cy="215.99" rx="7.96" ry="14.07" class="animable" style="transform-origin: 107.35px 215.99px; transform: rotate(-23.05deg);"></ellipse></g></g></g><polygon points="108.49 231.49 113.3 228.72 101.28 203.3 96.44 206.13 108.49 231.49" style="fill: rgb(38, 182, 166); transform-origin: 104.87px 217.395px;" id="elnhd6a5mn4h" class="animable"></polygon><g id="elhxf8d5f2d4"><polygon points="108.49 231.49 113.3 228.72 101.28 203.3 96.44 206.13 108.49 231.49" style="opacity: 0.2; transform-origin: 104.87px 217.395px;" class="animable"></polygon></g><polygon points="102.73 236 107.55 233.22 107.6 230.63 102.73 230.63 102.73 236" style="fill: rgb(38, 182, 166); transform-origin: 105.165px 233.315px;" id="ell8thmajzi3k" class="animable"></polygon><polygon points="102.73 236 107.55 233.22 107.6 230.63 102.73 230.63 102.73 236" style="fill: rgb(38, 182, 166); transform-origin: 105.165px 233.315px;" id="eliz4h10zd5l8" class="animable"></polygon><g id="el6uv9a37353v"><polygon points="102.73 236 107.55 233.22 107.6 230.63 102.73 230.63 102.73 236" style="fill: rgb(255, 255, 255); opacity: 0.2; transform-origin: 105.165px 233.315px;" class="animable"></polygon></g><path d="M104.61,231.89l-1.79,4a.31.31,0,0,1-.58,0l-1.9-6.43V227l4.27,2.46Z" style="fill: rgb(38, 182, 166); transform-origin: 102.475px 231.545px;" id="el17xtrynpr52" class="animable"></path><path d="M109.48,229.07l-1.79,4a.31.31,0,0,1-.58,0l-1.89-6.42v-2.46l4.26,2.46Z" style="fill: rgb(38, 182, 166); transform-origin: 107.35px 228.73px;" id="el2ulutgfmasv" class="animable"></path><g id="elz9xqolexmh"><g style="opacity: 0.2; transform-origin: 107.35px 228.73px;" class="animable"><path d="M109.48,229.07l-1.79,4a.31.31,0,0,1-.58,0l-1.89-6.42v-2.46l4.26,2.46Z" style="fill: rgb(255, 255, 255); transform-origin: 107.35px 228.73px;" id="el7zr5l3j6lqu" class="animable"></path></g></g><g id="elj9ee7y7pdi"><ellipse cx="102.48" cy="218.8" rx="7.98" ry="14.1" style="fill: rgb(38, 182, 166); transform-origin: 102.48px 218.8px; transform: rotate(-23.05deg);" class="animable"></ellipse></g><path d="M108.75,222.31a6.87,6.87,0,0,1-1.32,4.4c-1.16,1.38-2.94,1.71-5,.55a13.39,13.39,0,0,1-5-6.28,15.47,15.47,0,0,1-1.32-5.91Z" style="fill: rgb(38, 182, 166); transform-origin: 102.434px 221.518px;" id="elecwvcqnhme8" class="animable"></path><g id="elz8vkrpdxdo9"><path d="M108.75,222.31a6.87,6.87,0,0,1-1.32,4.4c-1.16,1.38-2.94,1.71-5,.55a13.39,13.39,0,0,1-5-6.28,15.47,15.47,0,0,1-1.32-5.91Z" style="opacity: 0.3; transform-origin: 102.434px 221.518px;" class="animable"></path></g><path d="M107.43,226.71c-1.16,1.38-2.94,1.71-5,.55a13.39,13.39,0,0,1-5-6.28c1.28-.92,3-.93,5,.17A13.92,13.92,0,0,1,107.43,226.71Z" style="fill: rgb(38, 182, 166); transform-origin: 102.43px 224.136px;" id="elz0me5zswcsq" class="animable"></path><g id="elrclyl0p3d0f"><path d="M107.43,226.71c-1.16,1.38-2.94,1.71-5,.55a13.39,13.39,0,0,1-5-6.28c1.28-.92,3-.93,5,.17A13.92,13.92,0,0,1,107.43,226.71Z" style="fill: rgb(255, 255, 255); opacity: 0.2; transform-origin: 102.43px 224.136px;" class="animable"></path></g><path d="M108.3,219.43a.55.55,0,0,1-.37-.15l-3.26-3.09a.53.53,0,0,1-.14-.56.55.55,0,0,1,.46-.35l2.51-.23a.54.54,0,0,1,.58.48.53.53,0,0,1-.48.58l-1.35.12,2.41,2.28a.53.53,0,0,1-.36.92Z" style="fill: rgb(38, 182, 166); transform-origin: 106.666px 217.239px;" id="elxtion2d279c" class="animable"></path><g id="elac2u6adxuas"><g style="opacity: 0.2; transform-origin: 106.666px 217.239px;" class="animable"><path d="M108.3,219.43a.55.55,0,0,1-.37-.15l-3.26-3.09a.53.53,0,0,1-.14-.56.55.55,0,0,1,.46-.35l2.51-.23a.54.54,0,0,1,.58.48.53.53,0,0,1-.48.58l-1.35.12,2.41,2.28a.53.53,0,0,1-.36.92Z" id="elqhvz4o4ngp" class="animable" style="transform-origin: 106.666px 217.239px;"></path></g></g><path d="M100,213.45h-.1l-3.27-.68a.53.53,0,1,1,.22-1l1.81.38-1.59-2a.53.53,0,0,1,.83-.67l2.52,3.14a.54.54,0,0,1,0,.61A.53.53,0,0,1,100,213.45Z" style="fill: rgb(38, 182, 166); transform-origin: 98.2952px 211.366px;" id="eliukq3ihn2ok" class="animable"></path><g id="elvfruuddk1s"><g style="opacity: 0.2; transform-origin: 98.2952px 211.366px;" class="animable"><path d="M100,213.45h-.1l-3.27-.68a.53.53,0,1,1,.22-1l1.81.38-1.59-2a.53.53,0,0,1,.83-.67l2.52,3.14a.54.54,0,0,1,0,.61A.53.53,0,0,1,100,213.45Z" id="elqs4sok2vws" class="animable" style="transform-origin: 98.2952px 211.366px;"></path></g></g></g><g id="character-2--inject-37" class="animable" style="transform-origin: 367.335px 320.265px;"><path d="M379.88,289.1c.46,1.15,3.33,7.22,7.15,4.32,4.61-3.5,10.4-19.32,10.4-19.32l-4.26-2L385,285.37l-5.13,3.73" style="fill: rgb(242, 143, 143); transform-origin: 388.65px 283.148px;" id="ely9amgg1xr4l" class="animable"></path><path d="M380.15,263.58c2,6.84,6.14,22.07,6.14,22.07s-1.7,9.3-4.69,6.1c-1-1.08-1.53-2.08-2.59-4.68-.94-2.34-3.75-11.88-3.75-11.88s.6-13.71-1.54-15.52a12.26,12.26,0,0,0-3.93-2.36C373.2,257.58,378.28,257.31,380.15,263.58Z" style="fill: rgb(242, 143, 143); transform-origin: 378.04px 274.865px;" id="eli3kol2phcmo" class="animable"></path><path d="M369.75,257.28a22.53,22.53,0,0,1,5.15.28c2,.48,4.16,2.34,5.13,5.66s5.16,18.37,5.16,18.37-1.7,3-8.12,3.06Z" style="fill: rgb(55, 71, 79); transform-origin: 377.47px 270.944px;" id="el0klt0gzh5el" class="animable"></path><path d="M389.74,264.56c1.13-2.1,1.41-2.2,2.08-2.66s4.8-1.07,6.51-1.22c2-.17,2.72.2,2.16,1.93a87,87,0,0,1-5.64,12.66c-.53.71-.64,1.37-2.91,1.59-2.11.21-4.76.33-5.54.37s-1.86.24-1.16-2.05a75.14,75.14,0,0,1,3.09-7.63C389.2,265.66,389.74,264.56,389.74,264.56Z" style="fill: rgb(38, 50, 56); transform-origin: 392.844px 268.947px;" id="el3kk1u6uz20n" class="animable"></path><path d="M397.43,274.1c.84-3.72,3.31-7.15,1.92-8.41l-.75,1.64s-4.63,1.11-6.86.94-4.07-.7-4.68-.27c-1.3.92-1.67,4.81,2.05,6.23C392.27,275.43,397.43,274.1,397.43,274.1Z" style="fill: rgb(242, 143, 143); transform-origin: 392.957px 270.211px;" id="elr877rc6g7xl" class="animable"></path><path d="M367.38,252.53h-3.9a13.21,13.21,0,0,1-13.22-13.21h0a15.17,15.17,0,0,1,15.17-15.17h0a15.17,15.17,0,0,1,15.17,15.17h0A13.21,13.21,0,0,1,367.38,252.53Z" style="fill: rgb(38, 50, 56); transform-origin: 365.43px 238.34px;" id="elw802gf0cucn" class="animable"></path><path d="M343,260.64h0a9.28,9.28,0,0,0,9.28-9.27v-17.6h0a9.28,9.28,0,0,0-9.28,9.28Z" style="fill: rgb(38, 50, 56); transform-origin: 347.64px 247.205px;" id="elmjf4s2yrv6" class="animable"></path><path d="M367.76,391.57a3.65,3.65,0,0,0,.54,2.1,25.82,25.82,0,0,0,3.46,4.54c1.85,2,4.62,4.34,6.61,6.08,1.1,1,1.14,2.42-.43,2.93a11.91,11.91,0,0,1-8.69-1.21c-2-1.06-4.78-6-6.43-6.7-1.88-.85-2.94-1.28-3.58-2.15a3,3,0,0,1-.38-3.79c.89-1.65,2.22-4.2,2.77-3.92l-.17.53c.43,1.35,4.11,2.92,6,2.54Z" style="fill: rgb(38, 50, 56); transform-origin: 368.759px 398.493px;" id="ell1982dqws8" class="animable"></path><path d="M369.42,385.06a42.49,42.49,0,0,0-1.65,6.53,3.41,3.41,0,0,0,.52,2.08,27.25,27.25,0,0,0,3.47,4.55c.9,1,2,2,3.17,3a.91.91,0,0,1,.16.48c0,1-2.51,1.31-4,.88a9.29,9.29,0,0,1-4.55-3.49c-.85-1.13-2.76-3.31-4-4.93a8.18,8.18,0,0,1-1.06-1.64,3.31,3.31,0,0,1-.15-2.34l.07-.24a25.61,25.61,0,0,0,1.2-6.24" style="fill: rgb(255, 168, 167); transform-origin: 368.137px 393.234px;" id="elbad6ocpc9hb" class="animable"></path><path d="M352,393.82a35.68,35.68,0,0,1,.47,5.75v4.26h6.31v-7.26a.13.13,0,0,0,.09-.05s.11-1.42.28-3.66" style="fill: rgb(255, 168, 167); transform-origin: 355.575px 398.345px;" id="elt9zhnoxthx9" class="animable"></path><path d="M369.42,385.06c3.49-11.28,11.25-31.47,12.31-35,1.14-3.77-.48-36.8-1.4-47.37L347.69,301c-2.5,10.72-.06,25.17.8,34.19.83,8.79,1.86,19.05,1.86,19.05s-2.57,8.95-1.89,16.08c.44,4.49,2.56,17.76,3.52,23.55a9.08,9.08,0,0,0,7.15-1c.4-5.08,1.17-14.36,1.88-20.42,1.09-9.1,1.45-15.74,2.39-21.06,1.17-6.63,1.58-32.62,1.58-32.62l3.79,29.48a36.89,36.89,0,0,0-3.4,8.77c-1.08,4.19-2.24,19.92-2.71,26.73C364.32,384.89,366.6,385.31,369.42,385.06Z" style="fill: rgb(55, 71, 79); transform-origin: 364.358px 347.599px;" id="el15y50ufxj93" class="animable"></path><path d="M365,318.76s6-2.11,9.43-5.25a16.85,16.85,0,0,1-7.05,6.16l-.05,17.26L365,318.76" style="fill: rgb(38, 50, 56); transform-origin: 369.715px 325.22px;" id="el3b76eduxfd9" class="animable"></path><path d="M360.19,257.59s-8.93,1-10,1.51c5.44,6,2.09,15,2.09,15l2.72,14c-3.57,4.57-6.63,8.17-7.49,13.61,3.83,6.75,25.21,7.89,33.09,2.86-.69-9.41-3.54-16.12-3-18.95,3.75-11.55,4-13.64,3.32-16.22-1.88-7.25-9.27-12.16-11.1-12.16Z" style="fill: rgb(69, 90, 100); transform-origin: 364.363px 282.462px;" id="elwjzp4l2paqh" class="animable"></path><path d="M334.09,289.09c-.62-1.63,2-6.23,3.88-9.3l7.65,3.77L343,288.34a96.09,96.09,0,0,0,5.52,13,3,3,0,0,0,1.68,1.36,17.68,17.68,0,0,1,4.35,2.56c1.21.79,2.1.84,2,1.2a1.64,1.64,0,0,1-1.87,1.21,11.84,11.84,0,0,1-2.64-.72,15.15,15.15,0,0,0,3.36,3.55c3,2.29,3.49,4-1.17,5.14-2.91.72-5.67-.54-9.39-6.46-1.07-1.71-2.47-4.22-3.6-6.51C338.62,297.28,335.54,292.84,334.09,289.09Z" style="fill: rgb(255, 168, 167); transform-origin: 345.845px 297.806px;" id="elukoujj2qic8" class="animable"></path><path d="M350.19,259.1c-2.68.3-4.54,3-7,7.64-2.11,4-7.19,14.61-7.19,14.61a13.49,13.49,0,0,0,8.95,5.17l7.29-12.37S356.25,264.29,350.19,259.1Z" style="fill: rgb(69, 90, 100); transform-origin: 344.771px 272.81px;" id="eloprnwvjcqg" class="animable"></path><path d="M358.77,400.71v-.9a17.42,17.42,0,0,0,4.51,7.91c2,1.81,4.71,3.91,5.4,5.93s-3.21,2.94-5.79,2.69a10.4,10.4,0,0,1-6.48-3.39c-1.63-1.88-1.61-3.16-2.37-4.2s-2.53-2.19-2.94-3.38a7.59,7.59,0,0,1,.36-3.32c.29-1.12.61-2.34,1-2.24v.69a5,5,0,0,0,3.16,1.07C356.53,401.6,358.77,401.42,358.77,400.71Z" style="fill: rgb(38, 50, 56); transform-origin: 359.906px 408.092px;" id="elt70iubums9l" class="animable"></path><path d="M352.45,400.5a5,5,0,0,0,3.16,1.07c.92,0,3.16-.15,3.16-.86v-.9a17.42,17.42,0,0,0,4.51,7.91l1.52,1.34c1.06,1.18.76,2.21-1.73,2.43s-4.68-1.29-6.57-3.61S352.45,400.5,352.45,400.5Z" style="fill: rgb(255, 168, 167); transform-origin: 358.914px 405.661px;" id="elbxt7pipj2rm" class="animable"></path><path d="M375.61,230.29c1.61,1,3.58,5,3.39,13.42-.17,7.16-2.49,8.93-3.65,9.44s-3.41.2-5.6-.17v4.3s3,3.51,2.83,5.48-4.36,2.43-7.18.51a22.87,22.87,0,0,1-5.21-5.68l.05-9.88s-1.29,1.25-3.47-.65c-1.79-1.58-2.4-4.23-1-5.65a3.13,3.13,0,0,1,5,1s1.21-3.37,6.25-5C371.55,235.9,374,234.19,375.61,230.29Z" style="fill: rgb(255, 168, 167); transform-origin: 367.006px 247.393px;" id="elux4qy3avdm" class="animable"></path><path d="M371,241.91a.9.9,0,1,1-1.8.09.91.91,0,0,1,.85-1A.93.93,0,0,1,371,241.91Z" style="fill: rgb(38, 50, 56); transform-origin: 370.098px 241.929px;" id="elfuhew41zdw9" class="animable"></path><path d="M371.25,248l2.09.67a1.08,1.08,0,0,1-1.36.75A1.15,1.15,0,0,1,371.25,248Z" style="fill: rgb(242, 143, 143); transform-origin: 372.271px 248.734px;" id="elcu17cs1zwdq" class="animable"></path><path d="M378.39,239.15l-1.82-1.26a1.06,1.06,0,0,1,1.51-.31A1.16,1.16,0,0,1,378.39,239.15Z" style="fill: rgb(38, 50, 56); transform-origin: 377.571px 238.269px;" id="elln39cvu4gz" class="animable"></path><path d="M368.39,239.81l1.82-1.26a1.06,1.06,0,0,0-1.51-.31A1.16,1.16,0,0,0,368.39,239.81Z" style="fill: rgb(38, 50, 56); transform-origin: 369.21px 238.929px;" id="el7dbw8f184cx" class="animable"></path><path d="M378,241.26a.9.9,0,1,1-1.8.09.91.91,0,0,1,.85-1A.93.93,0,0,1,378,241.26Z" style="fill: rgb(38, 50, 56); transform-origin: 377.098px 241.279px;" id="elq95xzqqfwmk" class="animable"></path><polygon points="373.72 240.75 373.86 246.16 376.72 245.28 373.72 240.75" style="fill: rgb(242, 143, 143); transform-origin: 375.22px 243.455px;" id="elq8agqjpd4ul" class="animable"></polygon><path d="M369.75,253c-2.3-.3-7-1.66-7.77-3.53a4.83,4.83,0,0,0,1.66,2.39c1.41,1.21,6.11,2.58,6.11,2.58Z" style="fill: rgb(242, 143, 143); transform-origin: 365.865px 251.955px;" id="elxf6xbqn021f" class="animable"></path><polygon points="353.43 280.09 359.75 291.22 355 288.17 353.43 280.09" style="fill: rgb(55, 71, 79); transform-origin: 356.59px 285.655px;" id="elpvlrjfh117" class="animable"></polygon></g><g id="character-1--inject-37" class="animable" style="transform-origin: 138.871px 318.979px;"><path d="M128.76,295.34c-.53,1.34-3.86,8.37-8.29,5-5.34-4.05-12.06-22.4-12.06-22.4l4.93-2.29L122.81,291l5.95,4.33" style="fill: rgb(242, 143, 143); transform-origin: 118.585px 288.447px;" id="el3azqzjfob13" class="animable"></path><path d="M128.44,265.75c-2.36,7.93-7.12,25.6-7.12,25.6s2,10.77,5.44,7.07c1.18-1.26,1.78-2.42,3-5.43,1.1-2.71,4.36-13.77,4.36-13.77s-.71-15.9,1.78-18a14.33,14.33,0,0,1,4.56-2.73C136.5,258.79,130.61,258.48,128.44,265.75Z" style="fill: rgb(242, 143, 143); transform-origin: 130.89px 278.842px;" id="el5zvb1omjk1a" class="animable"></path><path d="M117.33,266.89c-1.31-2.44-1.64-2.55-2.42-3.08s-5.56-1.25-7.54-1.42c-2.34-.2-3.16.23-2.51,2.24,1.38,4.3,5.6,13.42,6.54,14.68.62.82.75,1.59,3.37,1.85,2.45.24,5.53.37,6.43.42s2.16.28,1.35-2.38a87.39,87.39,0,0,0-3.59-8.85C118,268.16,117.33,266.89,117.33,266.89Z" style="fill: rgb(38, 50, 56); transform-origin: 113.728px 271.976px;" id="elpf3sqrie3a" class="animable"></path><path d="M108.41,278c-1-4.31-3.84-8.29-2.22-9.75l.87,1.91s5.36,1.28,8,1.08,4.71-.81,5.42-.31c1.5,1.06,1.94,5.58-2.37,7.22C114.4,279.49,108.41,278,108.41,278Z" style="fill: rgb(242, 143, 143); transform-origin: 113.619px 273.48px;" id="elchugb2xf6v" class="animable"></path><path d="M140.83,257.07c-4.75.05-10,1.78-11.77,5.5s-5.88,19.94-5.88,19.94A13.36,13.36,0,0,0,133.47,286Z" style="fill: rgb(55, 71, 79); transform-origin: 132.005px 271.563px;" id="elbzhxh6ynlem" class="animable"></path><rect x="154.86" y="394.16" width="6.57" height="9.56" style="fill: rgb(255, 168, 167); transform-origin: 158.145px 398.94px;" id="elro3pl7pzcgc" class="animable"></rect><g id="elg10j7papjrl"><rect x="131.93" y="382.43" width="6.57" height="9.56" style="fill: rgb(255, 168, 167); transform-origin: 135.215px 387.21px; transform: rotate(-1.97deg);" class="animable"></rect></g><path d="M161,300.8c0,6.27.81,46.84.81,46.84.15,1.8,1.84,5.13,1.48,12.06-.5,9.42-1.31,35.57-1.31,35.57s-3.08,3.05-7.43,0c0,0-6-35.54-7.12-44.87-1-8.14-2.77-30.26-2.77-30.26l-6.09,26s1.07,6.12,1.31,10.44-1.12,29.27-1.12,29.27a7.16,7.16,0,0,1-7.14.27s-5.28-36.45-6-40.36,4.62-45,4.62-45Z" style="fill: rgb(55, 71, 79); transform-origin: 144.447px 348.693px;" id="elhcwae2f4dnb" class="animable"></path><path d="M151.11,257.37l.09,0a13,13,0,0,1,9.8,12.67V300.8c-4.61,5-20.66,7.34-30.72,0v-32c0-5.12,2.84-11.26,10.69-11.72Z" style="fill: rgb(69, 90, 100); transform-origin: 145.64px 281.274px;" id="elc2ldbynduss" class="animable"></path><path d="M153.32,231.19a3.5,3.5,0,0,1,2.9,1c1.24,1.27,1,3.62,0,9l-3.85.44Z" style="fill: rgb(38, 50, 56); transform-origin: 154.716px 236.397px;" id="el86b77vu5d1" class="animable"></path><path d="M130.91,229.62a6,6,0,0,1-2.4-.49c-1.18-.67-1.49.67-.84,1.83a5.45,5.45,0,0,0,4.46,3c0-.16,1.1-3,1.1-3Z" style="fill: rgb(38, 50, 56); transform-origin: 130.283px 231.455px;" id="elk014v7id8d" class="animable"></path><path d="M151.52,241.69c.57.34,1.38-.76,2.09-1.5a2.47,2.47,0,0,1,4.14.68c1.17,2.46-1,5.71-2.82,6.28-3.11,1-3.58-1-3.58-1l-.24,11.25a10,10,0,0,1-7.57,5.74c-5.52.75-4.38-3.81-2.57-6v-3.42a19.27,19.27,0,0,1-4.2.21c-2.29-.35-3.74-2.16-4.43-4.64-1.12-4-1.54-7.2-.6-15,1-8.59,11-8.68,16.43-5.28S151.52,241.69,151.52,241.69Z" style="fill: rgb(255, 168, 167); transform-origin: 144.651px 245.072px;" id="el7m2tbv6b0e" class="animable"></path><path d="M151.52,242.65c.29,0,1.38-1.81,2.09-2.46,1-.89-.29-9-.29-9s1-3.08-.95-5.12-5.71-1.69-8.47-1.79a24.87,24.87,0,0,1-9.85-2c-3.92-1.7-4.21-1.9-4.7-.18s-.66,5.65,1.67,8.29l1.95.72s1.05.93,4.7,1.37a53.15,53.15,0,0,0,10.11-.19c1.06-.14,1.29.88,1.86,3.68C150.14,238.46,150.55,242.63,151.52,242.65Z" style="fill: rgb(38, 50, 56); transform-origin: 141.518px 231.777px;" id="elsu7a9ennvx" class="animable"></path><path d="M153.32,231.82l3.45-1.85a1.91,1.91,0,0,0-2.62-.87A2.06,2.06,0,0,0,153.32,231.82Z" style="fill: rgb(38, 50, 56); transform-origin: 154.935px 230.349px;" id="eldotchdfhvui" class="animable"></path><path d="M141,253.65s5.12-1,6.9-2a5.91,5.91,0,0,0,2.48-2.45,8.14,8.14,0,0,1-1.41,2.89c-1.31,1.67-8,2.9-8,2.9Z" style="fill: rgb(242, 143, 143); transform-origin: 145.675px 252.095px;" id="elivxzbqpmgtp" class="animable"></path><path d="M142.21,240.41a1,1,0,1,0,1-1.07A1,1,0,0,0,142.21,240.41Z" style="fill: rgb(38, 50, 56); transform-origin: 143.208px 240.34px;" id="elu0i1mzwe1dd" class="animable"></path><path d="M143.3,236.53l2.19,1.22A1.33,1.33,0,0,0,145,236,1.21,1.21,0,0,0,143.3,236.53Z" style="fill: rgb(38, 50, 56); transform-origin: 144.47px 236.794px;" id="elcp2wj9iyzbi" class="animable"></path><path d="M141.44,247.49l-2.34.88a1.22,1.22,0,0,0,1.59.77A1.3,1.3,0,0,0,141.44,247.49Z" style="fill: rgb(242, 143, 143); transform-origin: 140.308px 248.354px;" id="el9b5yhbjyide" class="animable"></path><path d="M133.07,237.39l2-1.54a1.21,1.21,0,0,0-1.74-.27A1.32,1.32,0,0,0,133.07,237.39Z" style="fill: rgb(38, 50, 56); transform-origin: 133.946px 236.358px;" id="el87ryz00k7z" class="animable"></path><path d="M133.68,240.11a1,1,0,1,0,2,0,1,1,0,0,0-1-1.06A1,1,0,0,0,133.68,240.11Z" style="fill: rgb(38, 50, 56); transform-origin: 134.68px 240.08px;" id="ely86kfakdgsh" class="animable"></path><polygon points="138.91 239.14 138.57 245.31 135.35 244.21 138.91 239.14" style="fill: rgb(242, 143, 143); transform-origin: 137.13px 242.225px;" id="elzgq89sk2zfq" class="animable"></polygon><path d="M154.86,400.48v-.94c-.63.28-2.09,5.85-4.69,8.22-2.07,1.89-4.9,4.08-5.62,6.18s3.94,3.4,5.87,3.06c2.25-.4,6.15-2,7.13-3.45s1.43-3.63,2.23-4.71,2.63-2.28,3.05-3.52a7.91,7.91,0,0,0-.37-3.45c-.31-1.16-.64-2.44-1-2.33v.72a5.23,5.23,0,0,1-3.29,1.11C157.18,401.41,154.85,401.22,154.86,400.48Z" style="fill: rgb(38, 50, 56); transform-origin: 153.678px 408.294px;" id="el6xxhz8u3ew8" class="animable"></path><path d="M132,390.08c-.35,0-.62.5-1.38,1.31a14.35,14.35,0,0,1-3.86,2.78c-2.46,1.23-7.24,3.12-9.4,4.1-1.35.61-1.29,2.24.11,3.17s4.77,1.6,8.82.69c2.2-.49,5.08-2.53,6.9-2.42s5.22.08,6.56-.84.8-2.9.42-4.6-1-4.69-1.62-4.56l0,.58c-.79,1.2-4.81,1.69-6.54.81Z" style="fill: rgb(38, 50, 56); transform-origin: 128.494px 396.134px;" id="elrwf1leu11v" class="animable"></path><path d="M173.07,296.21c.41-2-4-21.56-5.74-27.76l-7.67,9,4.72,19.33a109.37,109.37,0,0,1-3.85,15.95,3.57,3.57,0,0,1-1.67,1.88c-2,1.09-2.91,2.29-4.49,3.74-1.24,1.13-2.24,1.36-2.12,1.76a1.92,1.92,0,0,0,2.38,1,13.65,13.65,0,0,0,2.88-1.32,17.73,17.73,0,0,1-3.17,4.7c-3,3.18-3.24,5.24,2.3,5.66,3.48.27,6.39-1.69,9.52-9.17.91-2.15,2-5.29,2.89-8.12C171.07,306.14,172.13,300.77,173.07,296.21Z" style="fill: rgb(255, 168, 167); transform-origin: 162.668px 299.312px;" id="el0pri8z36zhar" class="animable"></path><path d="M153.19,258.07c3.9,1.28,11.64,1.94,14.14,10.38s3.75,13.93,3.75,13.93c-1.47,2-7.33,4.23-10.08,3.39Z" style="fill: rgb(69, 90, 100); transform-origin: 162.135px 272.011px;" id="eljg3k0ev61tk" class="animable"></path><polygon points="161 285.77 158.32 276.29 161 289.63 161 285.77" style="fill: rgb(55, 71, 79); transform-origin: 159.66px 282.96px;" id="elot97ch3w5em" class="animable"></polygon><path d="M144.66,320.14a24.4,24.4,0,0,1-9.15-5.24s1.77,3.3,7,6.37l-2,16.8Z" style="fill: rgb(38, 50, 56); transform-origin: 140.085px 326.485px;" id="elg6usmsxlvgc" class="animable"></path></g><defs>     <filter id="active" height="200%">         <feMorphology in="SourceAlpha" result="DILATED" operator="dilate" radius="2"></feMorphology>                <feFlood flood-color="#32DFEC" flood-opacity="1" result="PINK"></feFlood>        <feComposite in="PINK" in2="DILATED" operator="in" result="OUTLINE"></feComposite>        <feMerge>            <feMergeNode in="OUTLINE"></feMergeNode>            <feMergeNode in="SourceGraphic"></feMergeNode>        </feMerge>    </filter>    <filter id="hover" height="200%">        <feMorphology in="SourceAlpha" result="DILATED" operator="dilate" radius="2"></feMorphology>                <feFlood flood-color="#ff0000" flood-opacity="0.5" result="PINK"></feFlood>        <feComposite in="PINK" in2="DILATED" operator="in" result="OUTLINE"></feComposite>        <feMerge>            <feMergeNode in="OUTLINE"></feMergeNode>            <feMergeNode in="SourceGraphic"></feMergeNode>        </feMerge>            <feColorMatrix type="matrix" values="0   0   0   0   0                0   1   0   0   0                0   0   0   0   0                0   0   0   1   0 "></feColorMatrix>    </filter></defs></svg>