<?xml version="1.0" encoding="UTF-8"?>
<svg xmlns="http://www.w3.org/2000/svg" xmlns:xlink="http://www.w3.org/1999/xlink" width="48pt" height="48pt" viewBox="0 0 48 48" version="1.1">
<g id="surface8277232">
<path style=" stroke:none;fill-rule:nonzero;fill:rgb(40%,85.490196%,80%);fill-opacity:1;" d="M 23 4 C 16.832031 4 12 11.164062 12 20.308594 C 12 24.4375 13.03125 28.097656 14.683594 30.9375 C 14.574219 31.277344 14.5 31.628906 14.5 32 C 14.5 33.933594 16.066406 35.5 18 35.5 C 19.933594 35.5 21.5 33.933594 21.5 32 C 21.5 30.066406 19.933594 28.5 18 28.5 C 17.960938 28.5 17.925781 28.507812 17.886719 28.511719 C 16.738281 26.3125 16 23.449219 16 20.308594 C 16 13.636719 19.207031 8 23 8 C 25.570312 8 27.871094 10.59375 29.085938 14.339844 C 30.570312 14.578125 32.054688 14.984375 33.527344 15.492188 C 32.171875 8.769531 28.03125 4 23 4 Z M 22.75 17 C 20.816406 17 19.25 18.566406 19.25 20.5 C 19.25 22.433594 20.816406 24 22.75 24 C 24.125 24 25.300781 23.203125 25.875 22.050781 C 28.460938 22.167969 31.339844 22.917969 34.054688 24.386719 C 37.976562 26.511719 40.929688 29.769531 41.765625 32.898438 C 42.195312 34.503906 42.042969 35.914062 41.320312 37.089844 C 39.882812 39.425781 36.453125 40.359375 32.539062 39.867188 C 31.382812 41.050781 30.058594 42.136719 28.625 43.117188 C 30.625 43.703125 32.605469 44.003906 34.472656 44.003906 C 38.941406 44.003906 42.765625 42.375 44.726562 39.1875 C 46.03125 37.066406 46.34375 34.539062 45.628906 31.867188 C 44.5 27.652344 40.882812 23.539062 35.957031 20.871094 C 32.359375 18.921875 28.613281 18.011719 25.226562 18.027344 C 24.59375 17.390625 23.71875 17 22.75 17 Z M 8.195312 23.484375 C 5.273438 25.902344 3.179688 28.851562 2.375 31.867188 C 1.660156 34.539062 1.972656 37.066406 3.277344 39.183594 C 5.234375 42.371094 9.0625 44 13.53125 44 C 16.914062 44 20.664062 43.074219 24.25 41.128906 C 27.671875 39.277344 30.433594 36.726562 32.195312 33.929688 C 33.796875 33.609375 35 32.195312 35 30.5 C 35 28.566406 33.433594 27 31.5 27 C 29.566406 27 28 28.566406 28 30.5 C 28 31.152344 28.191406 31.757812 28.503906 32.28125 C 27.089844 34.3125 24.9375 36.210938 22.347656 37.613281 C 16.109375 40.992188 8.933594 40.75 6.679688 37.085938 C 5.957031 35.910156 5.808594 34.503906 6.238281 32.898438 C 6.675781 31.269531 7.695312 29.601562 9.121094 28.078125 C 8.683594 26.628906 8.375 25.089844 8.195312 23.484375 Z M 8.195312 23.484375 "/>
</g>
</svg>
